<?xml version="1.0" encoding="utf-8"?>
<!-- Generator: Adobe Illustrator 18.0.0, SVG Export Plug-In . SVG Version: 6.00 Build 0)  -->
<!DOCTYPE svg PUBLIC "-//W3C//DTD SVG 1.1//EN" "http://www.w3.org/Graphics/SVG/1.1/DTD/svg11.dtd">
<svg version="1.1" id="Слой_1" xmlns="http://www.w3.org/2000/svg" xmlns:xlink="http://www.w3.org/1999/xlink" x="0px" y="0px"
	 viewBox="73.2 0 626.4 1024" enable-background="new 73.2 0 626.4 1024" xml:space="preserve">
<path fill="#32CD32"      d="
	M656.2,93.4c-0.8-7.2-4.1-12.7-8.5-13.7c-2-7.5-5.5-13-9.9-14.9c-3.1-10.2-8.2-16.9-14.6-17.5c-11.1-1-22.1,16.8-25.7,40.9
	l-46.3-4.1c-1-5.4-3.6-13.9-9-11.1c0,0-4.5-6.8-10-3.1c0,0-4.5-6.4-10-1.1c0,0-1.9-9.7-10.4-2.9c0,0-10,6-14.3,13.4L255.3,58.2
	c1.2-12.2,1.6-25.6-5.6-17.6c0,0-4.8-1.1-6.3,3c0,0-4.5-6.3-10-1.1c0,0-6.6-5-11.1,3.7c0,0-8.9-3.7-10,6.3c0,0-0.1,0.7-0.3,1.9
	l-39.9-3.5c0.7-28.2-2.7-49.7-8-49.9c-0.4,0-0.8,0.1-1.3,1.2h-6.5c0,0-3.7,5.5-4.4,20.2l-13.1-1.8c-0.3,0-1.5,0.2-1.8,0.9l-1.1,0.1
	V22c-1.1,3.1-1.4,10-2.3,18.8l-11.2-0.2c-1.3-0.1-2.3,2.2-3.1,5.8l-45.1-4l-1,11.8l45.1,4c0.1,6,1.4,10.6,3.1,10.8l0,0.1l11.7,1.2
	c0,12.4,0.5,21.1,2.7,21.2v0c0,0,12.7,1.4,14,0c0,0-1.3,11.9,4,17.5l6.1,0.2l0-0.2c5,0.2,9.9-19.9,11.5-46.3l38.8,3.4
	c-0.8,8.6-1,19,1.9,24.3c0,0-11.5,95.5,1.9,128.2c0,0,0,9.3,11.5,13.7c0,0,35.7,49.8,83.6,80.2c0,0,4.8,2.6,11.1,45.3
	c0,0,3.3,31.6,7.4,48.7c0,0,9.3,62.4,0,76.9c0,0-7.6,12.3-4.5,13.4c0,0-8.8,11.4-4.7,16.1c0,0-10.9,19.2-7.8,21.8
	c0,0-19.7,63.6-11.5,132.5c0,0,4.8,68.8,2,83.8c0,0-15.7,64.7-8.2,120.6c0,0,4.7,62.2,0.5,71c0,0-3.6-1.6-5.2,7.3
	c0,0-15.6,18.2-23.9,22.8c0,0-26.5,4.3-27,19.9c0,0-4.2,3.5,4.2,10.8c0,0,32.4,10.4,44.8,7.3c0,0-1.3,7.2,26.3,9.3
	c0,0,22.3,0.5,27-8.3c0,0-0.5-8.8-2.1-8.8c0,0-1-34.3-6.7-41.5c0,0,0.6-34.9,7.5-65.9c10.9-49.3,12-97.7,12-97.7s-4.3-2.1,0-2.1
	c4.3,0,0-8.7,0-8.7c4.3,0.5,0.9-8.3,0.9-8.3c4.7-4.2,7.7-42.1,7.7-42.1c19.7-49.8,33.9-109,33.9-109c1.6-10.9,8.4-17.7,8.4-17.7
	s6.4,2.7,14.1,36.5c10.5,40.3,14.6,37.4,19.7,61.2c0,0,5.3,20.4,6.8,30.1c0,0,6,26.8,12.5,36.8c0,0,7.8,56.1,34.8,109
	c0,0,16.1,38.9,15.6,47.2c0,0-3.1,14,0,21.3c0,0-2.6,11.4,0,35.8c0,0-2.6,11.9,2.6,15.1c0,0,35.3,6.7,41-5.7c0,0,2.6-8.3,8.3-9.3
	c0,0,14.5-4.2,6.7-21.8c0,0-14.5-14.5-19.2-19.7c0,0-3.6-13-6.2-11.4c0,0-9.9-58.6-13.5-98.6c0,0-10.9-62.8-20.2-77.8
	c0,0,1-7.8-3.1-8.3c0,0,3.1-9.9-1-9.9c0,0-0.5-9.3-2.6-10.9c0,0,8.8-183.9-7.3-204.3c0,0,2.6-8.5-4.2-16.8c0,0,0.5-5.2-5.7-13
	c0,0-0.5-10.9-6.7-13.5c0,0-0.7-6.5-2.6-11.9c-11.2-33.1,0.5-63.8,0.5-63.8c19.7-54,25.4-86.2,25.4-86.2
	c10.9-10.3,32.2-48.8,32.2-48.8c5.7-12.5,14.5-25.7,14.5-25.7c13-14.3,0.5-72.9,0.5-72.9c-4.2-28-3.8-61.3-3.8-61.3s6-7.8,9.2-15.3
	l46.5,4.1c-1.1,24.8,6.3,44.9,17.6,45.9c5.3,0.5,10.5-3.3,15-10c6.7,0.2,13.1-7.3,17-18.5c4.1-1.2,7.7-5.9,9.4-12.3l43.3,3.8l1-11.8
	L656.2,93.4z M461.1,267.7l-9.3-22.3c0,0,0.4,0.4,1.1,1.1C455.9,249.7,463.5,258.9,461.1,267.7z M511.2,233.1c0,0-17,15.6-22.6,25.6
	c0,0-17.5,3-22.3,10.4c0,0,3-21.5-17.1-36.4c0,0,1.9-0.9,3.3-4.5c0,0,3.3,2.3,5.2-18.9c0,0,1.1-6.7-3.7-5.2c0,0,11.9-36.4-18.9-53.1
	c0,0-40.5-19.7-57.2,12.6c0,0-14.1,16.3-7.4,36.7c0,0-5.1-1-1.8,14.2c0,0,1.4,16.1,5.8,14.6c0,0,0.8,20.6,7.8,25.8
	c0,0,6.4,5.9,4.1,18.2c0,0-19.4-0.4-28.3,0.7h-5.9c-1.5-5.4-25.3-12.2-25.3-12.2c-8.3-1.8-26.7-14.8-26.7-14.8
	c-13-14.5-55.4-44-55.4-44c-0.4-13-5.6-56.8-5.6-56.8c-3.7-19.2-2.2-54.1-2.2-54.1s12.3-10.6,16.3-22l244.1,21.4
	c2,6.2,6.1,14.7,14.2,19.9c0,0,2.2,9.6,2.2,34.7c0,0-2.6,61.1,2.3,76.7C516.1,222.7,515.1,228.7,511.2,233.1z"/>
</svg>
