<?xml version="1.0" encoding="utf-8"?>
<!-- Generator: Adobe Illustrator 18.0.0, SVG Export Plug-In . SVG Version: 6.00 Build 0)  -->
<!DOCTYPE svg PUBLIC "-//W3C//DTD SVG 1.1//EN" "http://www.w3.org/Graphics/SVG/1.1/DTD/svg11.dtd">
<svg version="1.1" id="Слой_1" xmlns="http://www.w3.org/2000/svg" xmlns:xlink="http://www.w3.org/1999/xlink" x="0px" y="0px"
	 viewBox="204.4 0 655.2 768" enable-background="new 204.4 0 655.2 768" xml:space="preserve">
<path fill="#00FF00"      d="
	M854.9,707.7c-1.8-0.6-4.2-11.3-11.9-14.3c0,0-3.6-12.5-10.1-14.3c0,0-4.2-9.5-10.7-4.2c0,0-55.3-45.8-71.3-60.6
	c0,0-31.5-41.6-100.4-56.7c0,0-24.4-10.4-46.4-32.4c0,0-52.3-63-59.4-69.5c0,0,4.2-3.6-4.2-10.7c0,0-10.9-11.3-13.2-23.2
	c0,0-0.5-41-20.1-60.6c0,0-1.8-4.8-14.9-13.1c0,0-0.5-0.4-1.3-1c21.8-18.6,62.5-55.4,76.2-82.8l5.9-5.9c0,0,9.4-8.8,3.4-20.6
	c0,0-28.4-41.8-72.9-72.7l-33.9-30.3c0,0,0,0,0,0c-7.1-21.5-9.8-48.5-18-57.6c0,0,10.3,6.5,17.4,41c0,0,5-43.1-45.2-80.8
	c0,0-3.6-7.1-7.1-6.5c0,0-11.9-26.1-35.7-27.9c0,0-57.6-7.1-57.6,18.4c0,0-9.5,19-10.1,30.3c0,0-0.8,5.2,2.2,7.8c0,0,1.5,1-0.1,5.9
	c-2.6-0.7-5.5-2.7-5.5-2.7c1.2,2.6,2.9,4.3,4.4,5.4c-1,2.3-2.5,5.2-4.7,8.8c0,0-4.7,5.2,5,7.3c0,0,4.1,3.5,0.9,8.3
	c0,0,1,3.2,7.1,2.8c0,0-5.9,4.7-3.8,7.3c0,0,7.5,0.9,5.7,6.5c0,0-0.8,14.1,14.6,10.9c0,0,20-7.5,26.4,4.7l12.5,25.7
	c0,0-13.2,10.8-16.6,22c0,0-18.3,6.1-13.9,30.8c0,0-33.9,45.8-6.8,66.9c0,0,13.4,11.2,15.5,27.2c0,0,3.9,20.3,8.6,25.9
	c0,0,0.4,24.6,3.9,29.3c0,0-5.6,5.2,1.7,8.2l0.9,3.5c0,0-4.3,5.2,2.2,8.2l1.7,17c0,0-22.4,2.8-36.2,10.6c0,0-50.9,16.8-95.8,43.1
	c0,0-25.4,12.9-28,17.3c0,0-21.6,9.9-4.3,47c0,0,10.4,49.6,35.4,91.4l49.3,85.4c0,0-12-4.9-4.3,17.1c0,0-4.8,14.9-20.2,25.6
	l-19.6,12.5c0,0-19-1.2-22,13.1c0,0,1.8,17.8,53.5,11.3c0,0,34.1-4.8,38.2-9.5c0,0,10.1-2.7,13.7-0.9c3.6,1.8,3.6,1.8,3.6,1.8
	s26.1-2.7,29.1-11.6c0,0,1-20.2-2.5-24.4c0,0-4.8-12.5-7.7-16c0,0,1.8-10.1-13.7-11.9c0,0-20.2-52.3-28.5-86.8
	c0,0-5.9-45.2-36.2-85.6c0,0-4.8-10.7-1.2-13.7c0,0,10.7-7.7,34.5-6.5c0,0,49.3-3.6,72.5-9.5l24.2-3c0,0,19.7-7.6,28.7-1.8
	c16.2,9.4,17.2,9.8,19,8.9c0,0,55.3,56.5,105.8,86.2c0,0,14.9,10.1,19.6,14.3c0,0,12.5,9.5,29.1,12.5c0,0,11.9,1.8,22,1.8
	c0,0,17.8,5,36.2,16.8c0,0,35.1,22.5,58.8,31.4c0,0,37.4,19,41,25c0,0-10.1,7.7,3,13.1c0,0-1.2,16.6-11.9,25l-16.6,8.3
	c0,0-20.8,4.8-17.2,17.8c0,0-1.8,9.8,30.9,8.6c0,0,48.1-0.3,64.2-18.1c0,0,2.4-3.6,10.7-4.8c0,0,13.7,1.2,27.3-14.9
	C859.6,716,856.7,708.3,854.9,707.7z M434.5,124.1l-7.5-0.5c0,0-13.1-4.2-17.2-21.5c0,0,22-23.2,14.9-48.7
	C424.6,53.4,439.8,95.2,434.5,124.1z M466.2,323.2c0,0-1.2-8.3-3.6-11.9c0,0,3-5.3,0.6-13.1l4.2-16.6c0,0,2.4-11.3,3-16.6
	c0,0,0.5-1.3,1.2-3.4c3.8,10.3,4.8,22.1,16,21.9c0,0-10.8-1.3-9.9-27.2c0,5.6,6.3,17.8,12.5,19c0,0-7.9-6.7-5.5-35.2
	c0,0,0.8-11.3-3.2-22.1c0.6-2,0.9-4,0.7-5.2l39.2,32.7c0,0-23.8,53.5-29.1,60c0,0-11.7,16.8-19.6,25.4
	C470.2,328.2,467.9,325.6,466.2,323.2z"/>
</svg>
